<svg id="chat" xmlns="http://www.w3.org/2000/svg" width="18" height="15.681" viewBox="0 0 18 15.681">
  <path id="Combined-Shape" d="M14.58,13.806V10.7a2.567,2.567,0,0,0-2.567-2.567H6.162V5.161A2.162,2.162,0,0,1,8.324,3H18.412a2.161,2.161,0,0,1,2.162,2.161v6.484l.014,4.005a.428.428,0,0,1-.73.3l-2.148-2.148Z" transform="translate(-2.588 -3)" fill="#e2e4e9" fill-rule="evenodd"/>
  <path id="Combined-Shape-2" data-name="Combined-Shape" d="M1.985,16.989V12.711A1.711,1.711,0,0,1,3.7,11h6.846a1.711,1.711,0,0,1,1.711,1.711v4.278A1.711,1.711,0,0,1,10.542,18.7H3.8L2.731,19.718a.428.428,0,0,1-.724-.309V17.266A1.723,1.723,0,0,1,1.985,16.989Zm3.863-3.422a.428.428,0,1,0,0,.856h4.278a.428.428,0,1,0,0-.856Zm2.567,1.711a.428.428,0,1,0,0,.856h1.711a.428.428,0,1,0,0-.856Z" transform="translate(-1.985 -4.156)" fill="#e2e4e9" fill-rule="evenodd"/>
</svg>
