<svg xmlns="http://www.w3.org/2000/svg" width="17.739" height="12.901" viewBox="0 0 17.739 12.901">
  <path id="discord-icon" d="M17.32,9.613A8.479,8.479,0,0,0,13.289,8l-.2.394a7.788,7.788,0,0,1,3.825,2.025A11.86,11.86,0,0,0,10.87,8.806a11.86,11.86,0,0,0-6.047,1.613A7.956,7.956,0,0,1,8.647,8.394L8.451,8A8.425,8.425,0,0,0,4.419,9.613S2.354,12.607,2,18.482A7.617,7.617,0,0,0,7.241,20.9l.661-.881a8.077,8.077,0,0,1-3.483-2.345,10.166,10.166,0,0,0,6.451,2.016,10.166,10.166,0,0,0,6.451-2.016,8.073,8.073,0,0,1-3.483,2.345l.661.881a7.617,7.617,0,0,0,5.241-2.419C19.385,12.607,17.32,9.613,17.32,9.613ZM8.249,16.87a1.522,1.522,0,0,1-1.411-1.613,1.521,1.521,0,0,1,1.411-1.613A1.521,1.521,0,0,1,9.66,15.257,1.522,1.522,0,0,1,8.249,16.87Zm5.241,0a1.522,1.522,0,0,1-1.411-1.613,1.521,1.521,0,0,1,1.411-1.613A1.522,1.522,0,0,1,14.9,15.257,1.522,1.522,0,0,1,13.49,16.87Z" transform="translate(-2 -8)" fill="#7e89ff"/>
</svg>
