<svg id="facebook-icon" xmlns="http://www.w3.org/2000/svg" width="20" height="20" viewBox="0 0 20 20">
  <path id="Path_2234" data-name="Path 2234" d="M20,10A10,10,0,1,0,8.438,19.879V12.891H5.9V10H8.438V7.8a3.529,3.529,0,0,1,3.777-3.891,15.378,15.378,0,0,1,2.238.2V6.563H13.192a1.445,1.445,0,0,0-1.63,1.562V10h2.773l-.443,2.891h-2.33v6.988A10,10,0,0,0,20,10Z" fill="#1877f2"/>
  <path id="Path_2235" data-name="Path 2235" d="M158.994,108.984l.443-2.891h-2.773v-1.876a1.445,1.445,0,0,1,1.63-1.562h1.261V100.2a15.378,15.378,0,0,0-2.238-.2,3.529,3.529,0,0,0-3.777,3.891v2.2H151v2.891h2.539v6.988a10.108,10.108,0,0,0,3.125,0v-6.988Z" transform="translate(-145.102 -96.094)" fill="#efeff1"/>
</svg>
