<svg xmlns="http://www.w3.org/2000/svg" width="20" height="20" viewBox="0 0 20 20">
  <path id="gg-coin" d="M8,15.112l3.025-3.025L7.913,8.973l-.982.982,2.143,2.132L8,13.158,4.888,10.045,8,6.931l.446.446.971-.971L8,4.978,2.935,10.045Zm4-.089,5.067-5.067L12,4.888,8.973,7.913l3.114,3.114.982-.982L10.926,7.913,12,6.842l3.114,3.114L12,13.069l-.446-.446-.971.982ZM20,10a9.775,9.775,0,0,1-.792,3.884,9.825,9.825,0,0,1-5.324,5.324,9.915,9.915,0,0,1-7.768,0A9.825,9.825,0,0,1,.792,13.884a9.915,9.915,0,0,1,0-7.768A9.825,9.825,0,0,1,6.116.792a9.915,9.915,0,0,1,7.768,0,9.825,9.825,0,0,1,5.324,5.324A9.775,9.775,0,0,1,20,10Z" fill="#e8bd73"/>
</svg>
