<svg id="instagram-icon" xmlns="http://www.w3.org/2000/svg" xmlns:xlink="http://www.w3.org/1999/xlink" width="18.158" height="18" viewBox="0 0 18.158 18">
  <defs>
    <radialGradient id="radial-gradient" cx="0.149" cy="1.003" r="1.278" gradientUnits="objectBoundingBox">
      <stop offset="0" stop-color="#ffb140"/>
      <stop offset="0.256" stop-color="#ff5445"/>
      <stop offset="0.599" stop-color="#fc2b82"/>
      <stop offset="1" stop-color="#8e40b7"/>
    </radialGradient>
  </defs>
  <g id="Instagram_1_">
    <rect id="Rectangle_1565" data-name="Rectangle 1565" width="18" height="18" fill="none"/>
    <path id="Instagram" d="M14.884,4.2a1.08,1.08,0,1,1-1.08-1.08A1.08,1.08,0,0,1,14.884,4.2ZM9,12a3,3,0,1,1,3-3A3,3,0,0,1,9,12ZM9,4.378A4.622,4.622,0,1,0,13.622,9,4.622,4.622,0,0,0,9,4.378ZM9,1.622c2.4,0,2.688.009,3.637.052a4.978,4.978,0,0,1,1.671.31,2.789,2.789,0,0,1,1.035.673,2.787,2.787,0,0,1,.673,1.035,4.982,4.982,0,0,1,.31,1.671c.043.949.052,1.234.052,3.637s-.009,2.688-.052,3.637a4.979,4.979,0,0,1-.31,1.671,2.981,2.981,0,0,1-1.708,1.708,4.982,4.982,0,0,1-1.671.31c-.949.043-1.234.052-3.637.052s-2.688-.009-3.637-.052a4.978,4.978,0,0,1-1.671-.31,2.789,2.789,0,0,1-1.035-.673,2.788,2.788,0,0,1-.673-1.035,4.982,4.982,0,0,1-.31-1.671C1.631,11.688,1.621,11.4,1.621,9s.009-2.688.052-3.637a4.978,4.978,0,0,1,.31-1.671,2.789,2.789,0,0,1,.673-1.035,2.787,2.787,0,0,1,1.035-.673,4.982,4.982,0,0,1,1.671-.31C6.312,1.631,6.6,1.622,9,1.622ZM9,0C6.556,0,6.249.01,5.289.054A6.606,6.606,0,0,0,3.1.472,4.41,4.41,0,0,0,1.511,1.511,4.41,4.41,0,0,0,.472,3.1,6.607,6.607,0,0,0,.054,5.289C.01,6.249,0,6.556,0,9s.01,2.751.054,3.711A6.607,6.607,0,0,0,.472,14.9a4.41,4.41,0,0,0,1.038,1.594A4.412,4.412,0,0,0,3.1,17.527a6.607,6.607,0,0,0,2.185.418C6.249,17.99,6.556,18,9,18s2.751-.01,3.711-.054a6.607,6.607,0,0,0,2.185-.418A4.6,4.6,0,0,0,17.527,14.9a6.607,6.607,0,0,0,.418-2.185C17.99,11.751,18,11.444,18,9s-.01-2.751-.054-3.711A6.607,6.607,0,0,0,17.527,3.1a4.412,4.412,0,0,0-1.038-1.594A4.412,4.412,0,0,0,14.9.472,6.607,6.607,0,0,0,12.711.054C11.751.01,11.444,0,9,0Z" transform="translate(0.158)" fill-rule="evenodd" fill="url(#radial-gradient)"/>
  </g>
</svg>
