<svg xmlns="http://www.w3.org/2000/svg" width="17.69" height="18" viewBox="0 0 17.69 18">
  <path id="orders" d="M716.318,470.489a5.113,5.113,0,1,1,10.211,0h.2c.463,0,.925,0,1.388,0a1.2,1.2,0,0,1,1.223,1.129q.257,2.753.52,5.505c.138,1.462.284,2.923.4,4.386a1.945,1.945,0,0,1-.1.786,1.173,1.173,0,0,1-1.175.792H716.717q-1.425,0-2.85,0a1.243,1.243,0,0,1-1.288-1.217,10.328,10.328,0,0,1,.088-1.27c.1-1.095.213-2.189.32-3.284q.177-1.828.354-3.657c.067-.69.138-1.38.2-2.07a1.188,1.188,0,0,1,1.187-1.1c.456-.006.913,0,1.369,0Zm5.109,4.026-.1-.191a2.169,2.169,0,0,0-1.992-1.134,2.415,2.415,0,0,0-2.075,1.979,3.165,3.165,0,0,0,.444,2.121,7.725,7.725,0,0,0,3.2,2.934,1.039,1.039,0,0,0,1.046,0,7.948,7.948,0,0,0,2.9-2.462,5,5,0,0,0,.6-1.158,2.531,2.531,0,0,0-.223-2.351,2.123,2.123,0,0,0-3.8.264Zm3.28-4.035a3.282,3.282,0,0,0-1.612-3.145,3.323,3.323,0,0,0-3.683.229,3.241,3.241,0,0,0-1.261,2.916Z" transform="translate(-712.577 -465.088)" fill="#7e828b"/>
</svg>
