<svg xmlns="http://www.w3.org/2000/svg" width="18" height="17.999" viewBox="0 0 18 17.999">
  <path id="overview" d="M356.124,255A1.126,1.126,0,0,0,355,256.125v5.625a1.126,1.126,0,0,0,1.126,1.125h5.625a1.125,1.125,0,0,0,1.125-1.125v-5.625A1.125,1.125,0,0,0,361.749,255Zm0,10.125A1.126,1.126,0,0,0,355,266.249v5.625A1.126,1.126,0,0,0,356.124,273h5.625a1.126,1.126,0,0,0,1.125-1.125v-5.625a1.125,1.125,0,0,0-1.125-1.125ZM366.248,255a1.125,1.125,0,0,0-1.125,1.126v5.625a1.125,1.125,0,0,0,1.125,1.125h5.625A1.125,1.125,0,0,0,373,261.749v-5.625A1.125,1.125,0,0,0,371.873,255Zm0,10.125a1.125,1.125,0,0,0-1.125,1.125v5.625A1.126,1.126,0,0,0,366.248,273h5.625A1.125,1.125,0,0,0,373,271.874v-5.625a1.125,1.125,0,0,0-1.125-1.125Z" transform="translate(-354.998 -254.999)" fill="#e2e4e9" fill-rule="evenodd"/>
</svg>
