<svg xmlns="http://www.w3.org/2000/svg" width="17.548" height="18" viewBox="0 0 17.548 18">
  <path id="settings" d="M18.155,12.543a7.344,7.344,0,0,0,.057-.877,5.524,5.524,0,0,0-.067-.877L20.051,9.3a.463.463,0,0,0,.113-.574l-1.8-3.116a.459.459,0,0,0-.553-.2l-2.245.9a6.612,6.612,0,0,0-1.523-.877L13.7,3.049a.45.45,0,0,0-.452-.383H9.638a.439.439,0,0,0-.44.383L8.86,5.433a6.768,6.768,0,0,0-1.523.877l-2.245-.9a.446.446,0,0,0-.553.2L2.734,8.73a.436.436,0,0,0,.113.574l1.907,1.485a5.294,5.294,0,0,0-.011,1.755L2.836,14.028a.463.463,0,0,0-.113.574l1.8,3.116a.459.459,0,0,0,.553.2l2.245-.9a6.612,6.612,0,0,0,1.523.877l.338,2.385a.459.459,0,0,0,.452.383h3.61a.431.431,0,0,0,.44-.383l.338-2.385a6.768,6.768,0,0,0,1.523-.877l2.245.9a.446.446,0,0,0,.553-.2l1.8-3.116a.436.436,0,0,0-.113-.574l-1.884-1.485Zm-6.713,2.722a3.375,3.375,0,1,1,3.375-3.375A3.385,3.385,0,0,1,11.442,15.266Z" transform="translate(-2.669 -2.666)" fill="#7e828b"/>
</svg>
