<svg id="support" xmlns="http://www.w3.org/2000/svg" width="18" height="18" viewBox="0 0 18 18">
  <path id="Path_1739" data-name="Path 1739" d="M8.661,0A8.958,8.958,0,0,0,2.714,2.257l3.2,3.2a4.415,4.415,0,0,1,5.492,0l3.2-3.2A8.954,8.954,0,0,0,8.661,0Z" transform="translate(0.339)" fill="#7e828b"/>
  <path id="Path_1740" data-name="Path 1740" d="M5.915,11.148l-3.2,3.2a8.962,8.962,0,0,0,11.893,0l-3.2-3.2a4.415,4.415,0,0,1-5.492,0Z" transform="translate(0.339 1.394)" fill="#7e828b"/>
  <path id="Path_1741" data-name="Path 1741" d="M11.148,5.915a4.413,4.413,0,0,1,0,5.492l3.2,3.2a8.962,8.962,0,0,0,0-11.893Z" transform="translate(1.394 0.339)" fill="#7e828b"/>
  <path id="Path_1742" data-name="Path 1742" d="M5.458,11.407a4.413,4.413,0,0,1,0-5.492l-3.2-3.2a8.963,8.963,0,0,0,0,11.893Z" transform="translate(0 0.339)" fill="#7e828b"/>
</svg>
