<svg xmlns="http://www.w3.org/2000/svg" width="18" height="14.629" viewBox="0 0 18 14.629">
  <path id="twitter-icon" d="M18,4.731a7.33,7.33,0,0,1-2.121.581A3.707,3.707,0,0,0,17.5,3.27a7.4,7.4,0,0,1-2.345.9A3.7,3.7,0,0,0,8.865,7.534,10.486,10.486,0,0,1,1.253,3.676,3.7,3.7,0,0,0,2.4,8.607,3.682,3.682,0,0,1,.724,8.145c0,.015,0,.032,0,.046a3.7,3.7,0,0,0,2.962,3.622,3.71,3.71,0,0,1-1.667.064,3.7,3.7,0,0,0,3.449,2.565A7.408,7.408,0,0,1,.882,16.022,7.463,7.463,0,0,1,0,15.971a10.461,10.461,0,0,0,5.661,1.658A10.436,10.436,0,0,0,16.169,7.121c0-.16,0-.32-.011-.478A7.492,7.492,0,0,0,18,4.731Z" transform="translate(-0.001 -3)" fill="#55acee"/>
</svg>
