<svg id="warning" xmlns="http://www.w3.org/2000/svg" width="24" height="24" viewBox="0 0 24 24">
  <rect id="Rectangle_1053" data-name="Rectangle 1053" width="11" height="13" transform="translate(6 5.789)" fill="#e2e4e9"/>
  <path id="Path_1979" data-name="Path 1979" d="M23.195,9.808a3.346,3.346,0,0,0-4.733,0L9.809,18.462a3.346,3.346,0,0,0,0,4.733l8.653,8.653a3.347,3.347,0,0,0,4.733,0l8.653-8.653a3.347,3.347,0,0,0,0-4.733Zm-3.82,5.521v4.512l.671,3.426h1.611l.671-3.426V15.33Zm1.477,11.832a1.554,1.554,0,1,0-1.578-1.554A1.518,1.518,0,0,0,20.851,27.161Z" transform="translate(-8.828 -8.828)" fill="#272a30" fill-rule="evenodd"/>
</svg>
