<svg id="youtube-icon" xmlns="http://www.w3.org/2000/svg" width="23.974" height="16.782" viewBox="0 0 23.974 16.782">
  <path id="Path_2236" data-name="Path 2236" d="M23.473,79.422A3,3,0,0,0,21.354,77.3c-1.87-.5-9.367-.5-9.367-.5s-7.5,0-9.367.5A3,3,0,0,0,.5,79.422a33.492,33.492,0,0,0,0,11.541,3,3,0,0,0,2.119,2.12c1.87.5,9.367.5,9.367.5s7.5,0,9.367-.5a3,3,0,0,0,2.119-2.12,31.19,31.19,0,0,0,.5-5.77A31.193,31.193,0,0,0,23.473,79.422Z" transform="translate(0 -76.801)" fill="#ed1f24"/>
  <path id="Path_2237" data-name="Path 2237" d="M204.8,186.393l6.229-3.6-6.229-3.6Z" transform="translate(-195.206 -174.406)" fill="#efeff1"/>
</svg>
