<svg id="iyzico" xmlns="http://www.w3.org/2000/svg" width="40.246" height="14" viewBox="0 0 40.246 14">
  <path id="Path_1032" data-name="Path 1032" d="M1.488,14.81a1,1,0,0,0-1.008,1v5.856a1.007,1.007,0,0,0,2.015,0V15.81a1,1,0,0,0-1.007-1" transform="translate(-0.375 -11.621)" fill="#4285f3" fill-rule="evenodd"/>
  <g id="Group_275" data-name="Group 275" transform="translate(0 0)">
    <path id="Path_1033" data-name="Path 1033" d="M1.113.07A1.107,1.107,0,1,0,2.226,1.177,1.11,1.11,0,0,0,1.113.07" transform="translate(0 -0.07)" fill="#4285f3" fill-rule="evenodd"/>
  </g>
  <path id="Path_1034" data-name="Path 1034" d="M62.672,21.189a1.006,1.006,0,0,0-1.009-1H58.881l3.556-4.211a1,1,0,0,0-.807-1.644c-.011,0-4.45,0-4.45,0a1,1,0,1,0,0,2H59.5L55.95,20.545a1,1,0,0,0,.772,1.644h4.942a1,1,0,0,0,1.009-1M71.551,16.2a2.053,2.053,0,0,1,1.459.6,1.014,1.014,0,0,0,1.425,0,1,1,0,0,0,0-1.416,4.094,4.094,0,0,0-5.767,0,4.033,4.033,0,0,0,0,5.731,4.092,4.092,0,0,0,5.767,0,1,1,0,0,0,0-1.415,1.011,1.011,0,0,0-1.425,0,2.069,2.069,0,0,1-2.917,0,2.051,2.051,0,0,1,1.458-3.5M79.7,20.3a2.051,2.051,0,1,1,2.064-2.052A2.059,2.059,0,0,1,79.7,20.3m0-6.105a4.054,4.054,0,1,0,4.078,4.053A4.07,4.07,0,0,0,79.7,14.2m-14.549.134a1,1,0,0,0-1.006,1v5.856a1.007,1.007,0,0,0,2.014,0V15.333a1,1,0,0,0-1.007-1" transform="translate(-43.528 -11.144)" fill="#4285f3" fill-rule="evenodd"/>
  <g id="Group_276" data-name="Group 276" transform="translate(20.505 0)">
    <path id="Path_1035" data-name="Path 1035" d="M1.328.07A1.107,1.107,0,1,0,2.442,1.177,1.11,1.11,0,0,0,1.328.07" transform="translate(-0.215 -0.07)" fill="#4285f3" fill-rule="evenodd"/>
  </g>
  <path id="Path_1036" data-name="Path 1036" d="M22.732,14.921a1.01,1.01,0,0,0-1.358.426l-2.161,4.141-2.161-4.141a1.01,1.01,0,0,0-1.358-.426,1,1,0,0,0-.429,1.351l2.813,5.39-1.3,2.494a1,1,0,0,0,.429,1.35.983.983,0,0,0,.508.112,1.007,1.007,0,0,0,.852-.537l4.593-8.809a1,1,0,0,0-.428-1.351" transform="translate(-11.837 -11.619)" fill="#4285f3" fill-rule="evenodd"/>
</svg>
