<svg xmlns="http://www.w3.org/2000/svg" width="22.155" height="14" viewBox="0 0 22.155 14">
  <g id="mastercard" opacity="0.8">
    <path id="Path_2504" data-name="Path 2504" d="M8.475,7a7.046,7.046,0,0,1,2.594-5.483A6.672,6.672,0,0,0,6.836,0,6.917,6.917,0,0,0,0,7a6.917,6.917,0,0,0,6.836,7,6.72,6.72,0,0,0,4.242-1.508A7.072,7.072,0,0,1,8.475,7Z" transform="translate(0 0)" fill="#e30d17"/>
    <path id="Path_2505" data-name="Path 2505" d="M14.721,8.118A7.046,7.046,0,0,0,17.315,13.6a7.093,7.093,0,0,0,0-10.967A7.033,7.033,0,0,0,14.721,8.118Z" transform="translate(-6.246 -1.118)" fill="#eb610a"/>
    <path id="Path_2506" data-name="Path 2506" d="M29.84,10.778v-.207h-.079v-.054h.219v.054h-.088v.207Zm.42,0V10.6l-.061.153h-.062l-.061-.153v.18h-.062v-.261H30.1l.062.171.062-.171h.088v.261h-.053ZM23.469,0a6.722,6.722,0,0,0-4.242,1.508,7.092,7.092,0,0,1,0,10.967,6.721,6.721,0,0,0,4.242,1.508,6.917,6.917,0,0,0,6.836-7A6.907,6.907,0,0,0,23.469,0Z" transform="translate(-8.158)" fill="#f69f00"/>
  </g>
</svg>
