<svg id="troy" xmlns="http://www.w3.org/2000/svg" width="30.402" height="14" viewBox="0 0 30.402 14">
  <g id="g20" transform="translate(19.149 2.251)">
    <path id="path22" d="M-2700.2,0a1.187,1.187,0,0,0-1.078.661l-1.982,4.542-.714-4.542A.77.77,0,0,0-2704.8,0h-2.51l2.147,7.544a1.09,1.09,0,0,1,.018.474,1.423,1.423,0,0,1-1.344,1.14h-1.406c-.357,0-.592.221-.707.722l-.312,1.869h2.476a4.383,4.383,0,0,0,3.82-2.443L-2697.662,0Z" transform="translate(2708.915)" fill="#e4e6eb" fill-rule="evenodd"/>
  </g>
  <g id="g24">
    <path id="path26" d="M-1082.975,0c.741,0,1.1.3.969,1.039l-.214,1.211h1.7l-.375,2.127h-1.7l-.464,2.633c-.16.918.748,1.04,1.269,1.04.1,0,.19,0,.252-.006l-.417,2.372a4.181,4.181,0,0,1-.542.032c-1.293,0-3.739-.346-3.258-3.075l.527-3h-1.242l.374-2.127h1.23l.4-2.25Z" transform="translate(1086.471)" fill="#fff" fill-rule="evenodd"/>
  </g>
  <g id="g28" transform="translate(16.382 2.347)">
    <path id="path30" d="M-442.215,0l-.438,2.48a1.663,1.663,0,0,1,.909,1.482,1.664,1.664,0,0,1-1.462,1.651l-.437,2.479c.077,0,.156.007.234.007a4.138,4.138,0,0,0,4.139-4.138A4.14,4.14,0,0,0-442.215,0" transform="translate(443.643)" fill="#00adbc" fill-rule="evenodd"/>
  </g>
  <g id="g32" transform="translate(12.479 2.171)">
    <path id="path34" d="M-1047.925-1741.014a1.664,1.664,0,0,1-.91-1.482,1.666,1.666,0,0,1,1.463-1.65l.437-2.48c-.078,0-.157-.008-.234-.008a4.14,4.14,0,0,0-4.138,4.138,4.142,4.142,0,0,0,2.946,3.964Z" transform="translate(1051.308 1746.634)" fill="#00adbc" fill-rule="evenodd"/>
  </g>
  <g id="g36" transform="translate(5.51 2.17)">
    <path id="path38" d="M-443.179-25.047h1.464c.742,0,1.1.3.968,1.04l-.16.9a3.53,3.53,0,0,1,2.941-2.02,1.766,1.766,0,0,1,.312.032l-.473,2.682a2.644,2.644,0,0,0-.544-.049,2.516,2.516,0,0,0-2.349,1.42,4.192,4.192,0,0,0-.334,1.1l-.53,3.013h-2.727Z" transform="translate(444.61 25.128)" fill="#e4e6eb" fill-rule="evenodd"/>
  </g>
</svg>
