<svg id="visa" xmlns="http://www.w3.org/2000/svg" width="34.732" height="10" viewBox="0 0 34.732 10">
  <path id="Path_2507" data-name="Path 2507" d="M61.264,12.973H58.437l1.777-9.639h2.827ZM56.048,3.333l-2.71,6.623L53.018,8.54l-.961-4.356s-.116-.876-1.341-.876H46.258l-.058.18A11.673,11.673,0,0,1,49.172,4.6l2.476,8.377h2.943l4.517-9.639h-3.06Zm22.29,9.639h2.593L78.659,3.333H76.386a1.3,1.3,0,0,0-1.311.721l-4.2,8.917h2.943l.583-1.443h3.613ZM75.221,9.545l1.486-3.608.845,3.608H75.221ZM71.084,5.653l.408-2.062a9.344,9.344,0,0,0-2.564-.412c-1.4,0-4.749.541-4.749,3.2,0,2.5,3.933,2.526,3.933,3.84s-3.525,1.083-4.691.258l-.408,2.164a8.78,8.78,0,0,0,3.2.542c1.924,0,4.867-.876,4.867-3.3,0-2.5-3.963-2.732-3.963-3.84,0-1.134,2.768-.98,3.963-.386Z" transform="translate(-46.199 -3.179)" fill="#e4e6eb"/>
  <path id="Path_2508" data-name="Path 2508" d="M53.018,8.617l-.962-4.33s-.116-.876-1.341-.876H46.257l-.058.18a11.287,11.287,0,0,1,4.2,1.882,7.409,7.409,0,0,1,2.623,3.144Z" transform="translate(-46.199 -3.283)" fill="#f7a823"/>
</svg>
